<svg width="9" height="16" viewBox="0 0 9 16" fill="none" xmlns="http://www.w3.org/2000/svg">
<path d="M8.30184 6.57909L8.06047 8.66955C8.05046 8.76493 8.00576 8.85332 7.93487 8.91792C7.86398 8.98253 7.77183 9.01885 7.67593 9.02H5.49411L5.4832 15.2177C5.48394 15.2912 5.45574 15.362 5.40471 15.4148C5.35367 15.4676 5.2839 15.4982 5.21047 15.5H3.00002C2.96327 15.5 2.92689 15.4926 2.89307 15.4782C2.85925 15.4639 2.82868 15.4428 2.80321 15.4163C2.77774 15.3898 2.75788 15.3584 2.74483 15.3241C2.73179 15.2897 2.72582 15.2531 2.72729 15.2164V9.02H1.09093C1.03953 9.01947 0.988745 9.00881 0.941467 8.98865C0.894189 8.96849 0.851346 8.93921 0.815384 8.90249C0.779422 8.86576 0.751045 8.82232 0.731875 8.77463C0.712704 8.72694 0.703115 8.67594 0.703655 8.62455L0.695473 6.53409C0.694752 6.48252 0.704197 6.4313 0.72327 6.38338C0.742343 6.33545 0.770669 6.29176 0.806632 6.25478C0.842595 6.21781 0.885489 6.18828 0.932865 6.16788C0.980241 6.14748 1.03117 6.13662 1.08275 6.13591H2.72729V4.11773C2.72729 1.775 4.1182 0.5 6.1582 0.5H7.83002C7.88171 0.500533 7.93279 0.511267 7.98032 0.531584C8.02785 0.551901 8.07091 0.581402 8.10702 0.618395C8.14312 0.655389 8.17157 0.699147 8.19073 0.747159C8.20989 0.795171 8.21938 0.846493 8.21866 0.898182V2.65727C8.21938 2.70896 8.20989 2.76028 8.19073 2.8083C8.17157 2.85631 8.14312 2.90007 8.10702 2.93706C8.07091 2.97405 8.02785 3.00355 7.98032 3.02387C7.93279 3.04419 7.88171 3.05492 7.83002 3.05545H6.80457C5.69593 3.05545 5.48047 3.60091 5.48047 4.38909V6.13591H7.91729C7.97271 6.1366 8.02735 6.14902 8.07763 6.17234C8.1279 6.19566 8.17268 6.22936 8.209 6.27122C8.24532 6.31308 8.27237 6.36216 8.28837 6.41522C8.30437 6.46828 8.30896 6.52413 8.30184 6.57909Z" fill="#090F1D"/>
</svg>
