<svg width="15" height="12" viewBox="0 0 15 12" fill="none" xmlns="http://www.w3.org/2000/svg">
<path d="M14.0373 0.204547L13.7891 0.294547L0.319118 5.14773C0.223662 5.17725 0.140699 5.2376 0.0832307 5.31934C0.0257627 5.40107 -0.00296127 5.49956 0.00156151 5.59938C0.00608429 5.69919 0.043598 5.79468 0.108223 5.87088C0.172847 5.94709 0.26093 5.99969 0.358664 6.02046L3.84548 6.975L4.49594 8.88409L5.14639 10.7932C5.18376 10.8868 5.2434 10.9698 5.32015 11.0351C5.3969 11.1004 5.48842 11.146 5.58679 11.1679C5.68515 11.1898 5.78737 11.1874 5.88457 11.1608C5.98178 11.1342 6.07103 11.0843 6.14457 11.0155L7.94594 9.31364L11.4832 11.7123C11.9155 12.0068 12.5318 11.7886 12.6423 11.3032L14.985 0.95182C15.0996 0.439093 14.5596 0.0177291 14.0373 0.204547ZM12.3178 2.50227L6.23185 7.47682L5.94548 7.71137C5.88257 7.76124 5.8415 7.8336 5.83094 7.91318L5.76685 8.44228L5.59094 9.92864C5.59238 9.94672 5.58659 9.96464 5.57482 9.97845C5.56306 9.99226 5.54629 10.0008 5.52821 10.0023C5.51013 10.0037 5.49221 9.99792 5.4784 9.98616C5.46459 9.9744 5.45602 9.95763 5.45457 9.93955L4.95957 8.45455L4.44821 6.93409C4.42658 6.86575 4.42945 6.792 4.45634 6.72555C4.48322 6.6591 4.53242 6.60409 4.59548 6.57L10.9282 2.94L12.12 2.25818C12.2932 2.15727 12.4705 2.37682 12.3178 2.50227Z" fill="#090F1D"/>
</svg>
