<svg width="15" height="14" viewBox="0 0 15 14" fill="none" xmlns="http://www.w3.org/2000/svg">
<path d="M14.9714 2.46047C14.6154 2.9923 14.182 3.468 13.6855 3.87183C13.6211 3.92305 13.5691 3.98817 13.5335 4.06232C13.4978 4.13647 13.4794 4.21773 13.4796 4.30001V4.35047C13.4739 5.42214 13.2772 6.48421 12.8987 7.48683C12.5087 8.53769 11.9296 9.50826 11.19 10.3505C10.2006 11.4784 8.92611 12.3196 7.50002 12.7859C6.56033 13.0909 5.57795 13.2437 4.59002 13.2386C3.02545 13.237 1.48908 12.8221 0.136386 12.0359C0.0879498 12.0084 0.0498615 11.9658 0.027945 11.9145C0.00602846 11.8633 0.00148979 11.8063 0.0150225 11.7523C0.0287373 11.6988 0.0599625 11.6515 0.103713 11.6179C0.147463 11.5843 0.201215 11.5663 0.256386 11.5668H0.630022C1.81924 11.5666 2.98126 11.211 3.96684 10.5455C3.37933 10.4494 2.8296 10.1935 2.37788 9.80579C1.92616 9.41805 1.58989 8.91345 1.40593 8.34728C1.39691 8.31937 1.3953 8.28959 1.40126 8.26087C1.40723 8.23215 1.42056 8.20547 1.43996 8.18346C1.45935 8.16145 1.48414 8.14487 1.51189 8.13533C1.53963 8.1258 1.56938 8.12366 1.5982 8.1291C1.77802 8.16329 1.96063 8.18064 2.14366 8.18092H2.21184C1.6424 7.91927 1.16097 7.49823 0.825787 6.96872C0.490608 6.43921 0.316041 5.82392 0.323204 5.19728C0.323593 5.16789 0.331579 5.13909 0.346386 5.11369C0.361193 5.08829 0.382317 5.06715 0.407707 5.05233C0.433097 5.03751 0.46189 5.02951 0.491287 5.0291C0.520684 5.02869 0.549687 5.0359 0.575477 5.05001C0.806521 5.17903 1.05433 5.2754 1.31184 5.33638C0.801912 4.83224 0.473711 4.17313 0.378699 3.46239C0.283687 2.75165 0.427237 2.02948 0.786841 1.4091C0.800636 1.38624 0.819649 1.36697 0.842323 1.35287C0.864998 1.33877 0.890689 1.33024 0.917294 1.32798C0.943899 1.32572 0.970662 1.32979 0.995391 1.33986C1.02012 1.34993 1.04211 1.36572 1.05957 1.38592C1.77375 2.26878 2.65803 2.99916 3.6599 3.53371C4.66178 4.06826 5.76084 4.39609 6.89184 4.49774H6.90411C6.92087 4.49719 6.93735 4.49329 6.95257 4.48626C6.9678 4.47923 6.98146 4.46923 6.99275 4.45683C7.00361 4.44443 7.01176 4.4299 7.01669 4.41416C7.02162 4.39843 7.02322 4.38185 7.02139 4.36547C6.97916 3.96945 7.00499 3.56913 7.09775 3.18183C7.17904 2.84276 7.31737 2.51998 7.50684 2.22728C7.90447 1.60277 8.5102 1.13905 9.21684 0.918193C9.54831 0.81427 9.89356 0.760942 10.2409 0.760011C11.0287 0.759235 11.7896 1.04633 12.3805 1.56728C12.4558 1.63419 12.5525 1.67193 12.6532 1.67365C12.6864 1.6731 12.7193 1.66852 12.7514 1.66001C13.3069 1.51947 13.8392 1.29948 14.3318 1.00683C14.3615 0.989697 14.3956 0.981896 14.4298 0.984442C14.4639 0.986989 14.4965 0.999767 14.5233 1.02111C14.5501 1.04245 14.5698 1.07137 14.58 1.10409C14.5901 1.13681 14.5901 1.17182 14.58 1.20456C14.4147 1.72067 14.1221 2.18683 13.7291 2.56001C14.0836 2.47535 14.4295 2.3585 14.7627 2.21092C14.7963 2.19595 14.8339 2.19235 14.8697 2.20065C14.9056 2.20895 14.9377 2.2287 14.9613 2.25692C14.9849 2.28513 14.9986 2.32027 15.0005 2.357C15.0023 2.39373 14.9921 2.43006 14.9714 2.46047Z" fill="#090F1D"/>
</svg>
