<svg width="15" height="16" viewBox="0 0 15 16" fill="none" xmlns="http://www.w3.org/2000/svg">
<path d="M4.14548 2.54545C4.14548 2.95001 4.02551 3.34547 3.80075 3.68185C3.576 4.01822 3.25654 4.28039 2.88278 4.43521C2.50902 4.59002 2.09775 4.63053 1.70097 4.55161C1.30419 4.47268 0.939728 4.27787 0.653666 3.99181C0.367604 3.70575 0.172794 3.34128 0.0938693 2.9445C0.0149449 2.54772 0.0554515 2.13645 0.210267 1.76269C0.365083 1.38894 0.627254 1.06948 0.963628 0.844721C1.3 0.619964 1.69547 0.5 2.10002 0.5C2.64251 0.5 3.16278 0.715503 3.54638 1.0991C3.92997 1.4827 4.14548 2.00297 4.14548 2.54545ZM3.68184 5.95455V14.9914C3.6822 15.058 3.66938 15.1241 3.64411 15.1858C3.61885 15.2475 3.58164 15.3036 3.53463 15.3509C3.48762 15.3981 3.43172 15.4356 3.37017 15.4612C3.30861 15.4868 3.2426 15.5 3.17593 15.5H1.02002C0.953354 15.5002 0.88731 15.4872 0.825684 15.4618C0.764057 15.4363 0.708064 15.399 0.660923 15.3518C0.613783 15.3047 0.576425 15.2487 0.550996 15.1871C0.525567 15.1254 0.512568 15.0594 0.512748 14.9927V5.95455C0.512748 5.82001 0.566193 5.69098 0.661325 5.59585C0.756457 5.50072 0.885484 5.44727 1.02002 5.44727H3.17593C3.31023 5.44763 3.43891 5.50124 3.53375 5.59633C3.62858 5.69142 3.68184 5.82024 3.68184 5.95455ZM14.9509 10.6591V15.0336C14.9511 15.0949 14.9392 15.1557 14.9158 15.2123C14.8924 15.269 14.8581 15.3205 14.8147 15.3638C14.7714 15.4071 14.7199 15.4415 14.6632 15.4649C14.6066 15.4882 14.5459 15.5002 14.4846 15.5H12.1664C12.1051 15.5002 12.0444 15.4882 11.9877 15.4649C11.931 15.4415 11.8796 15.4071 11.8362 15.3638C11.7929 15.3205 11.7585 15.269 11.7352 15.2123C11.7118 15.1557 11.6998 15.0949 11.7 15.0336V10.7941C11.7 10.1614 11.8855 8.02318 10.0459 8.02318C8.62093 8.02318 8.33048 9.48636 8.2732 10.1436V15.0336C8.27322 15.1562 8.22502 15.2738 8.13903 15.361C8.05304 15.4483 7.93616 15.4982 7.81366 15.5H5.57457C5.51339 15.5 5.45281 15.4879 5.3963 15.4645C5.3398 15.441 5.28848 15.4066 5.24528 15.3633C5.20208 15.32 5.16786 15.2686 5.14457 15.212C5.12128 15.1554 5.10939 15.0948 5.10957 15.0336V5.915C5.10939 5.85382 5.12128 5.79321 5.14457 5.73663C5.16786 5.68006 5.20208 5.62864 5.24528 5.58531C5.28848 5.54199 5.3398 5.50762 5.3963 5.48416C5.45281 5.46071 5.51339 5.44864 5.57457 5.44864H7.81366C7.93735 5.44864 8.05597 5.49777 8.14343 5.58523C8.23089 5.67269 8.28002 5.79131 8.28002 5.915V6.70318C8.80911 5.90955 9.5932 5.29727 11.2664 5.29727C14.9727 5.29727 14.9509 8.75818 14.9509 10.6591Z" fill="#090F1D"/>
</svg>
